#Comment line ignore any data following # character
#Hierarchical Translation and Rotation (.htr) file
[Header]		#Header keywords are followed by a single value
FileType htr		#Single word string
DataType HTRS		#Translation followed by rotation and scale data
FileVersion 1		#integer
NumSegments 15		#integer
NumFrames 4		#integer
DataFrameRate 60		#integer, data frame rate in this file
EulerRotationOrder ZYX
CalibrationUnits mm
RotationUnits Degrees
GlobalAxisofGravity Y
BoneLengthAxis Y
ScaleFactor 1.000000
[SegmentNames&Hierarchy]
#CHILD	PARENT
1cou	1buste
1buste	1bassin
1brasG	1buste
1brasD	1buste
1avbrasG	1brasG
1avbrasD	1brasD
1mainG	1avbrasG
1mainD	1avbrasD
1bassin	GLOBAL
1cuisseG	1bassin
1cuisseD	1bassin
1moletG	1cuisseG
1moletD	1cuisseD
1piedG	1moletG
1piedD	1moletD
[BasePosition]
#SegmentName Tx, Ty, Tz, Rx, Ry, Rz, BoneLength
1cou	0.000002	394.639771	0.000003	47.447697	-6.500580	2.097482	232.574402
1buste	0.331046	98.159424	9.920088	5.813737	-6.959647	-0.900074	394.639771
1brasG	222.293304	333.760773	-3.143221	-5.521868	-4.449825	-174.025208	338.016541
1brasD	-186.675308	347.235016	-30.968008	-5.508482	16.777920	169.824814	318.101379
1avbrasG	0.000004	338.016571	-0.000002	34.403133	17.432653	23.106703	253.821075
1avbrasD	-0.000007	318.101410	-0.000013	32.381824	-10.529597	-11.344105	276.946075
1mainG	0.000006	253.821091	-0.000001	-3.773718	-0.485368	-1.748444	73.639816
1mainD	-0.000031	276.946106	-0.000010	-3.909555	0.199285	0.225476	80.942635
1bassin	396.031860	1037.839600	833.112305	178.297836	19.764000	-179.799622	97.859962
1cuisseG	108.625954	-0.934603	-40.474510	172.403458	-4.353497	-0.165467	517.714233
1cuisseD	-106.972656	-1.326527	-48.733826	172.076172	-12.757409	2.045154	501.698334
1moletG	0.000006	517.714233	-0.000009	157.872192	5.331374	176.676331	488.075745
1moletD	-0.000005	501.698303	0.000003	156.316269	3.295414	-177.725830	511.880615
1piedG	0.000002	488.075745	-0.000006	99.880898	-0.000004	0.000000	242.425140
1piedD	-0.000009	511.880646	-0.000013	102.622849	0.000000	0.000000	237.138092
#Beginning of Data. Separated by tabs
[1cou]
#Fr	Tx	Ty	Tz	Rx	Ry	Rz	SF
186	-0.000015	-35.533081	-0.000008	-7.428527	-26.019072	8.990404	0.964065
187	0.000008	-35.018158	-0.000024	-7.564693	-25.513624	8.354534	0.962672
188	0.000022	-35.088867	-0.000024	-7.415211	-25.479616	8.073580	0.960871
189	-0.000022	-35.052032	-0.000008	-7.083702	-24.859976	7.657182	0.961905
[1buste]
#Fr	Tx	Ty	Tz	Rx	Ry	Rz	SF
186	9.239395	-11.670181	12.167694	7.819968	-9.504086	-8.288994	0.909961
187	9.075899	-11.548965	12.286283	7.890552	-9.516828	-8.196646	0.911266
188	9.729724	-11.755676	12.728827	8.124709	-8.915654	-8.614725	0.911086
189	10.160976	-11.941719	13.272251	8.447913	-8.761979	-8.971331	0.911180
[1brasG]
#Fr	Tx	Ty	Tz	Rx	Ry	Rz	SF
186	-61.634705	-28.950104	24.406126	78.957336	33.322662	63.180355	0.903925
187	-61.358795	-29.358154	23.144138	77.249138	33.464310	62.219646	0.903639
188	-61.217102	-29.841492	22.761553	75.730232	33.640694	61.444294	0.902607
189	-61.103546	-30.153076	22.156448	74.134247	33.696419	60.513256	0.901904
[1brasD]
#Fr	Tx	Ty	Tz	Rx	Ry	Rz	SF
186	-9.476776	-52.330780	-3.533915	4.633649	-15.063165	-2.908804	0.859722
187	-9.830292	-51.206451	-3.046507	4.591951	-14.745518	-2.857217	0.860245
188	-10.080978	-51.010437	-2.949774	4.385126	-14.318303	-2.636708	0.860417
189	-10.401993	-50.693817	-2.776987	4.209645	-13.939638	-2.513559	0.859585
[1avbrasG]
#Fr	Tx	Ty	Tz	Rx	Ry	Rz	SF
186	-0.000013	-32.474823	-0.000007	30.679859	-7.464032	17.392502	1.155158
187	-0.000003	-32.571533	-0.000010	30.324400	-7.375356	17.120367	1.154774
188	-0.000015	-32.920532	0.000023	29.943819	-7.430011	16.596319	1.152962
189	-0.000038	-33.158295	-0.000009	29.740761	-7.829790	15.811762	1.151113
[1avbrasD]
#Fr	Tx	Ty	Tz	Rx	Ry	Rz	SF
186	-0.000018	-44.622498	0.000024	55.983639	-10.850999	-54.576462	0.931296
187	0.000001	-44.456116	0.000036	55.703938	-11.117819	-54.251076	0.932271
188	0.000022	-44.401398	0.000012	55.404137	-11.394841	-53.934467	0.934130
189	0.000001	-44.666351	0.000001	55.103062	-11.619921	-53.544975	0.937403
[1mainG]
#Fr	Tx	Ty	Tz	Rx	Ry	Rz	SF
186	0.000005	39.382370	-0.000006	1.884871	0.387438	1.473143	1.122880
187	0.000005	39.284775	0.000028	1.853559	0.388397	1.454819	1.122853
188	0.000008	38.824966	-0.000019	1.814335	0.388878	1.435542	1.121422
189	-0.000032	38.355515	-0.000015	1.781587	0.386505	1.427012	1.119865
[1mainD]
#Fr	Tx	Ty	Tz	Rx	Ry	Rz	SF
186	0.000020	-19.027313	0.000037	2.249734	-0.100750	-0.541449	0.886957
187	0.000045	-18.757233	0.000020	2.237092	-0.096075	-0.514497	0.888018
188	0.000029	-18.242371	0.000028	2.223831	-0.091576	-0.484815	0.890004
189	0.000026	-17.335938	0.000040	2.214526	-0.088120	-0.457097	0.893439
[1bassin]
#Fr	Tx	Ty	Tz	Rx	Ry	Rz	SF
186	-894.099365	-820.011841	-228.491577	-101.180519	-41.622807	94.391754	0.922147
187	-894.850891	-820.744812	-230.203430	-100.920128	-42.188660	93.938416	0.922870
188	-896.022156	-821.578064	-230.935791	-101.309158	-42.390011	93.982300	0.918231
189	-897.499146	-822.235718	-232.276917	-101.257210	-42.661358	93.465652	0.917743
[1cuisseG]
#Fr	Tx	Ty	Tz	Rx	Ry	Rz	SF
186	-6.914742	0.595355	-9.198402	-25.216312	-18.987719	-18.850182	0.993416
187	-6.900078	0.532129	-9.232052	-25.709974	-19.333761	-18.903465	0.991647
188	-7.460976	0.609712	-9.668102	-25.580141	-19.682604	-19.165882	0.992613
189	-7.555664	0.650280	-9.696472	-25.722166	-19.941917	-18.980000	0.993402
[1cuisseD]
#Fr	Tx	Ty	Tz	Rx	Ry	Rz	SF
186	2.659424	-3.612557	12.377888	-60.780674	-6.322913	-24.291918	1.071835
187	2.598610	-3.564356	12.570179	-60.946491	-6.003332	-24.428375	1.072523
188	2.944008	-3.772848	13.240860	-60.694584	-5.959731	-24.430990	1.073294
189	2.959579	-3.925009	13.630348	-60.693699	-5.593828	-24.353539	1.073962
[1moletG]
#Fr	Tx	Ty	Tz	Rx	Ry	Rz	SF
186	0.000013	-3.408569	0.000012	-7.675515	-5.785129	5.622839	0.934239
187	0.000014	-4.324524	0.000026	-7.729985	-5.051398	5.764655	0.934481
188	-0.000015	-3.824097	-0.000015	-7.781379	-4.773413	5.620450	0.934923
189	-0.000043	-3.416016	0.000008	-7.626903	-4.197492	5.914479	0.934046
[1moletD]
#Fr	Tx	Ty	Tz	Rx	Ry	Rz	SF
186	-0.000001	36.039490	-0.000002	-75.270096	9.938900	14.159834	0.864283
187	0.000029	36.384460	0.000009	-75.243935	10.227659	14.276266	0.864166
188	0.000023	36.771301	-0.000012	-75.274475	10.439298	14.290008	0.864162
189	0.000006	37.106934	-0.000007	-75.324158	10.705574	14.123847	0.864286
[1piedG]
#Fr	Tx	Ty	Tz	Rx	Ry	Rz	SF
186	-0.000018	-32.096191	0.000010	-10.400643	0.000000	-0.000005	1.028956
187	-0.000021	-31.977936	0.000032	-10.552479	-0.000002	-0.000006	1.029810
188	0.000007	-31.762360	0.000026	-10.597750	-0.000000	-0.000007	1.025875
189	0.000030	-32.190582	-0.000015	-10.840954	-0.000001	-0.000003	1.024657
[1piedD]
#Fr	Tx	Ty	Tz	Rx	Ry	Rz	SF
186	-0.000005	-69.470795	-0.000000	4.817862	-0.000000	-0.000000	1.050342
187	-0.000011	-69.530945	0.000026	4.782043	0.000000	-0.000000	1.049668
188	0.000012	-69.532867	-0.000002	4.860247	-0.000000	-0.000000	1.050554
189	0.000042	-69.469421	0.000004	4.873202	-0.000000	-0.000000	1.052027
[EndOfFile]
